# xmcd
#
# Track frame offsets: 
#        150
#        10649
#        28855
#        36491
#        46032
#        59859
#        68670
#        75851
#
# Disc length: 1149 seconds
#
# Revision: 2
# Processed by: cddbd v1.5.2PL0 Copyright (c) Steve Scherf et al.
# Submitted via: ExactAudioCopy v0.99pb4
#
DISCID=5d047b08
DTITLE=Lalandia - Monky Tonky Børneshow
DYEAR=1900
DGENRE=Children
TTITLE0=Lalandia-Sangen
TTITLE1=Monky Tonky Sang
TTITLE2=Må Man Bade uden Badebukser På
TTITLE3=Majas Sang
TTITLE4=Bananasangen
TTITLE5=Monky
TTITLE6=Så Farvel Og Tak
TTITLE7=Lalandia-Sangen (Syng Med Version)
EXTD=
EXTT0=
EXTT1=
EXTT2=
EXTT3=
EXTT4=
EXTT5=
EXTT6=
EXTT7=
PLAYORDER=
